<svg version="1.1" id="Layer_1" xmlns="http://www.w3.org/2000/svg" xmlns:xlink="http://www.w3.org/1999/xlink" x="0px"
     y="0px"
     width="100%" viewBox="0 0 2919 482" enable-background="new 0 0 2919 482" xml:space="preserve">
    <path fill="#E84142" opacity="1.000000" stroke="none"
          d="
M2920.000000,60.531731 
	C2916.332275,74.043045 2912.633301,87.077423 2909.004883,100.131332 
	C2904.523193,116.253845 2900.872314,132.687057 2890.767334,146.610046 
	C2877.708984,164.602234 2861.054688,177.794250 2839.856445,184.972641 
	C2838.638428,185.385086 2837.443848,185.866379 2836.245117,186.313065 
	C2848.532227,213.046890 2860.760254,239.651917 2873.208740,266.736725 
	C2871.357666,266.841003 2869.946533,266.989105 2868.535400,266.989838 
	C2841.880127,267.003632 2815.224854,266.939575 2788.570312,267.074280 
	C2785.128662,267.091644 2783.352783,266.156769 2781.875000,262.858368 
	C2771.556396,239.828033 2760.924072,216.938522 2750.538330,193.937988 
	C2748.935791,190.389847 2747.070557,188.827515 2742.837891,188.875000 
	C2719.517578,189.136566 2696.192627,189.062302 2672.870117,188.931870 
	C2669.427979,188.912643 2667.762939,189.598648 2666.757324,193.351425 
	C2660.707031,215.924805 2654.116699,238.354095 2648.146240,260.947632 
	C2646.896484,265.675842 2645.166992,267.190918 2640.248291,267.126556 
	C2618.095215,266.836517 2595.935791,267.000000 2573.778809,267.000000 
	C2571.971924,267.000000 2570.164795,267.000000 2567.395020,267.000000 
	C2592.297607,178.165497 2617.026855,89.949142 2641.877930,1.366393 
	C2720.687500,1.000000 2799.375000,1.000000 2878.694824,1.361139 
	C2892.262939,3.734511 2903.093750,9.613453 2910.091553,20.743448 
	C2914.219971,27.309858 2916.750732,34.880821 2920.000000,42.000008 
	C2920.000000,48.021152 2920.000000,54.042305 2920.000000,60.531731 
M2690.844727,118.998909 
	C2729.330078,118.999268 2767.815918,118.935730 2806.300781,119.046379 
	C2815.553467,119.072983 2822.998779,115.517616 2826.907471,107.378014 
	C2830.218994,100.481995 2831.959961,92.782150 2833.966797,85.322510 
	C2836.194092,77.042793 2831.463867,71.020027 2823.023926,71.013496 
	C2783.705322,70.983101 2744.386719,71.041656 2705.068604,70.925133 
	C2701.739746,70.915268 2700.673340,72.107224 2699.836670,75.173553 
	C2696.164307,88.635475 2692.106689,101.992020 2688.379639,115.439728 
	C2688.111816,116.406204 2689.375488,117.797211 2690.844727,118.998909 
z"/>
    <path fill="#E84142" opacity="1.000000" stroke="none"
          d="
M1998.531372,1.000000 
	C2007.245117,3.725961 2015.708130,6.093051 2022.336304,12.104004 
	C2031.323608,20.254135 2036.833984,30.305943 2039.073120,42.348095 
	C2041.766968,56.835648 2037.031494,70.079208 2033.189697,83.555046 
	C2029.673706,95.888237 2026.689209,108.381241 2022.882812,120.621040 
	C2018.977295,133.179459 2012.864014,144.644608 2003.990356,154.558060 
	C1994.518921,165.139313 1983.822998,174.130524 1971.040039,180.400955 
	C1966.249268,182.750931 1961.135010,184.441467 1955.926514,186.529602 
	C1968.155396,213.155701 1980.343872,239.693741 1992.770386,266.750031 
	C1990.429077,266.868256 1989.125122,266.991028 1987.821045,266.991577 
	C1960.999634,267.002777 1934.178101,266.964966 1907.356934,267.052887 
	C1904.600952,267.061920 1903.051514,266.457428 1901.806519,263.684784 
	C1891.536865,240.812302 1881.001831,218.059067 1870.695190,195.202988 
	C1868.808228,191.018585 1866.889282,188.701843 1861.447388,188.808777 
	C1838.466553,189.260361 1815.471680,189.000000 1792.481934,189.000000 
	C1790.831543,189.000000 1789.181030,189.000000 1787.451904,189.000000 
	C1781.224854,211.615860 1775.083008,233.974014 1768.900635,256.320923 
	C1767.948242,259.763245 1767.796143,264.774475 1765.511841,266.164886 
	C1762.555176,267.964478 1757.828979,266.973358 1753.864136,266.980591 
	C1731.720459,267.020966 1709.576782,267.000000 1687.110962,267.000000 
	C1711.805054,178.369949 1736.401489,90.090607 1760.998901,1.405627 
	C1840.020874,1.000000 1919.041870,1.000000 1998.531372,1.000000 
M1943.956055,71.004150 
	C1902.851562,71.004150 1861.746948,71.004150 1820.597046,71.004150 
	C1816.076172,87.030197 1811.617676,102.835083 1807.112061,118.806908 
	C1808.147095,118.890533 1808.803101,118.989792 1809.459229,118.989929 
	C1849.080444,118.998421 1888.702271,119.116257 1928.322266,118.894547 
	C1935.694580,118.853294 1942.430908,115.477921 1945.818115,108.821175 
	C1949.070068,102.430717 1950.762573,95.231720 1952.990479,88.339554 
	C1955.307129,81.172745 1954.991455,74.255821 1943.956055,71.004150 
z"/>
    <path fill="#E84142" opacity="1.000000" stroke="none"
          d="
M1690.531372,1.000000 
	C1699.244873,3.725961 1707.707520,6.092822 1714.335938,12.103358 
	C1723.323120,20.253090 1728.833862,30.304674 1731.072754,42.346260 
	C1733.766357,56.832970 1728.971558,70.061150 1725.198486,83.554840 
	C1718.029785,109.193108 1711.301636,134.957260 1703.889526,160.523865 
	C1698.700684,178.422165 1693.959839,196.625763 1686.673950,213.691925 
	C1679.240356,231.103485 1664.895386,243.406021 1648.965942,253.531662 
	C1632.959717,263.706177 1615.321899,267.142853 1596.577271,267.067413 
	C1547.101562,266.868317 1497.623657,267.168304 1448.148926,266.869293 
	C1437.207886,266.803162 1426.309937,264.852966 1417.120483,258.003479 
	C1404.092163,248.292755 1396.800293,235.481033 1395.952148,219.033829 
	C1395.217041,204.777924 1400.169800,191.729050 1403.868286,178.384750 
	C1412.279907,148.036896 1420.533081,117.644615 1429.077393,87.334259 
	C1433.659058,71.080589 1437.817871,54.658772 1448.511841,40.847351 
	C1462.867676,22.306564 1480.715210,9.082637 1503.546509,2.964232 
	C1504.638306,2.671664 1505.662231,2.126180 1506.858887,1.349231 
	C1568.020874,1.000000 1629.041870,1.000000 1690.531372,1.000000 
M1632.918579,132.276733 
	C1632.957275,131.611618 1632.874634,130.911972 1633.052612,130.286484 
	C1637.140259,115.919807 1641.187012,101.540901 1645.391235,87.208244 
	C1648.121338,77.900986 1643.222046,71.012741 1633.575317,71.007530 
	C1598.416260,70.988533 1563.257324,70.985733 1528.098267,71.010818 
	C1520.031006,71.016571 1510.142212,78.497200 1508.045532,86.079201 
	C1499.217896,118.000252 1490.389160,149.920959 1481.588623,181.849442 
	C1479.553223,189.233917 1484.570435,195.985870 1492.100830,195.990387 
	C1527.926392,196.011871 1563.752197,195.926544 1599.577271,196.059341 
	C1607.124512,196.087311 1616.025146,190.512115 1618.504639,182.700500 
	C1623.708862,166.304810 1627.895630,149.586121 1632.918579,132.276733 
z"/>
    <path fill="#E84142" opacity="1.000000" stroke="none"
          d="
M2628.531250,0.999998 
	C2623.669434,19.555281 2618.324951,38.106602 2613.023193,56.670090 
	C2612.220459,59.481014 2611.916260,62.475769 2610.789551,65.134605 
	C2610.255615,66.394577 2608.412109,67.672966 2607.009766,67.872421 
	C2604.070068,68.290489 2601.029297,67.999962 2598.030029,67.999969 
	C2543.377441,68.000015 2488.724854,68.000000 2434.072266,68.000000 
	C2432.251221,68.000000 2430.429932,68.000000 2428.343262,68.000000 
	C2425.457520,78.596466 2422.617676,89.024529 2419.644775,99.940659 
	C2477.706055,99.940659 2535.152100,99.940659 2592.979492,99.940659 
	C2586.508789,122.812378 2580.160156,145.252640 2573.749268,167.913574 
	C2516.013916,167.913574 2458.391602,167.913574 2400.418945,167.913574 
	C2397.483643,178.478729 2394.593262,188.882401 2391.550537,199.833832 
	C2452.264160,199.833832 2512.343018,199.833832 2573.078125,199.833832 
	C2566.812744,222.478348 2560.699707,244.572327 2554.542236,266.826508 
	C2468.263916,266.826508 2381.989746,266.826508 2294.334961,266.826508 
	C2318.964111,178.220657 2343.481201,90.017807 2367.999023,1.407483 
	C2454.687500,1.000000 2541.375000,1.000000 2628.531250,0.999998 
z"/>
    <path fill="#E84142" opacity="1.000000" stroke="none"
          d="
M583.531372,0.999998 
	C578.277954,21.468824 572.507751,41.924408 566.873840,62.417454 
	C565.721619,66.608620 563.780518,68.164925 559.033936,68.145973 
	C502.385986,67.919754 445.736725,68.000000 389.087830,68.000000 
	C387.269867,68.000000 385.451904,68.000000 383.469574,68.000000 
	C380.626465,78.651581 377.836761,89.103119 374.933075,99.981689 
	C432.730164,99.981689 490.168427,99.981689 548.164673,99.981689 
	C546.010559,107.904236 544.057007,115.376434 541.942688,122.802895 
	C538.075989,136.385086 533.949768,149.896240 530.302795,163.536240 
	C529.338318,167.143265 527.840576,168.087158 524.259033,168.079605 
	C469.942993,167.964966 415.626617,168.000000 361.310333,168.000000 
	C359.484314,168.000000 357.658295,168.000000 355.610229,168.000000 
	C352.700378,178.492142 349.815216,188.895264 346.757141,199.921844 
	C407.385162,199.921844 467.577728,199.921844 528.306824,199.921844 
	C522.026367,222.604568 515.925537,244.638840 509.788757,266.802734 
	C423.241669,266.802734 336.817963,266.802734 249.613037,266.802734 
	C250.960159,261.639679 252.130554,256.816620 253.477814,252.043457 
	C264.942993,211.423645 276.490662,170.827072 287.911560,130.194839 
	C296.565369,99.407257 305.061615,68.575417 313.644806,37.767952 
	C316.993896,25.747025 320.389099,13.738955 323.881653,1.362517 
	C410.354218,1.000000 496.708466,1.000000 583.531372,0.999998 
z"/>
    <path fill="#E84142" opacity="1.000000" stroke="none"
          d="
M1139.531372,1.000001 
	C1138.646362,6.681831 1137.486206,12.418200 1135.902588,18.035194 
	C1131.234619,34.592163 1126.399048,51.101830 1121.522217,68.000000 
	C1119.660278,68.000000 1117.682373,68.000000 1115.704468,68.000000 
	C1059.055054,68.000000 1002.405640,68.037117 945.756470,67.924721 
	C941.536377,67.916344 939.538696,68.688728 938.591797,73.444359 
	C936.857727,82.152931 933.939514,90.625702 931.338806,99.819847 
	C989.237183,99.819847 1046.300659,99.819847 1104.730103,99.819847 
	C1098.231812,122.930565 1091.945801,145.286438 1085.559204,168.000000 
	C1083.647217,168.000000 1081.669189,168.000000 1079.691284,168.000000 
	C1025.541138,168.000000 971.390991,168.032104 917.241028,167.932159 
	C913.378113,167.925034 911.656006,168.643021 910.744507,172.995300 
	C908.851929,182.031708 905.854248,190.836670 903.234253,200.005066 
	C963.833008,200.005066 1024.134766,200.005066 1084.698364,200.005066 
	C1080.393799,215.924744 1076.185913,231.594604 1071.909668,247.245850 
	C1070.370483,252.879776 1068.822632,258.522308 1066.922119,264.038055 
	C1066.491821,265.287170 1064.634888,266.116028 1063.315308,266.949768 
	C1062.838745,267.250916 1062.012939,266.999908 1061.346436,266.999908 
	C977.705322,267.000000 894.064148,267.000000 810.423035,266.999969 
	C809.102661,266.999969 807.782227,266.999969 805.948425,266.999969 
	C830.706543,178.332458 855.352234,90.067467 879.999023,1.401244 
	C966.354248,1.000000 1052.708496,1.000000 1139.531372,1.000001 
z"/>
    <path fill="#E84142" opacity="1.000000" stroke="none"
          d="
M1386.531372,1.000000 
	C1395.089722,3.691346 1403.253540,6.016685 1409.930908,11.914948 
	C1419.098145,20.012548 1424.689331,29.830669 1427.083618,41.837791 
	C1429.768066,55.299282 1425.718506,67.739044 1422.286987,80.326340 
	C1418.229736,95.208633 1414.457397,110.184914 1409.833740,124.891602 
	C1405.844727,137.579391 1399.630737,149.220673 1390.435181,159.123764 
	C1381.406738,168.846802 1371.439331,177.443085 1359.684204,183.561874 
	C1349.382935,188.923981 1338.376831,192.900543 1326.575195,192.936890 
	C1277.749634,193.087326 1228.923462,193.000000 1180.097412,193.000000 
	C1178.278809,193.000000 1176.460205,193.000000 1174.401733,193.000000 
	C1167.882202,216.781845 1161.460083,240.403732 1154.803955,263.959503 
	C1154.438110,265.254059 1152.132690,266.861328 1150.719849,266.871338 
	C1125.730591,267.048248 1100.739746,266.999481 1075.210327,266.999481 
	C1099.861328,178.405228 1124.429565,90.108292 1148.999023,1.405675 
	C1228.020874,1.000000 1307.041870,1.000000 1386.531372,1.000000 
M1205.999756,80.505196 
	C1202.048340,94.536919 1198.097046,108.568642 1194.033081,123.000000 
	C1195.957886,123.000000 1197.602905,123.000000 1199.247803,123.000000 
	C1237.385010,123.000000 1275.522339,123.002251 1313.659546,122.998589 
	C1324.634766,122.997528 1334.288940,115.474281 1336.959961,104.888840 
	C1338.467651,98.913567 1339.890503,92.913109 1341.568848,86.985519 
	C1344.319580,77.270615 1337.304688,70.680763 1329.330078,70.785912 
	C1292.531494,71.271156 1255.723022,71.000000 1218.918091,71.000000 
	C1209.038330,71.000000 1209.038330,71.000000 1205.999756,80.505196 
z"/>
    <path fill="#E84142" opacity="1.000000" stroke="none"
          d="
M314.531342,0.999998 
	C309.669556,19.548906 304.325134,38.093822 299.023651,56.650993 
	C298.220917,59.460865 297.596222,62.322685 296.928467,65.169693 
	C296.217041,68.203033 293.930481,68.024529 291.552155,68.022118 
	C259.070679,67.989235 226.588165,68.126823 194.108612,67.873871 
	C188.758636,67.832207 187.133698,69.553169 185.778793,74.680122 
	C178.107437,103.708351 169.859695,132.584351 161.795547,161.508652 
	C152.206207,195.903488 142.602554,230.294342 133.019608,264.690948 
	C132.849930,265.299988 132.862381,265.959778 132.767685,266.790405 
	C106.551575,266.790405 80.451859,266.790405 53.686264,266.790405 
	C72.111160,200.418182 90.447037,134.366623 108.870384,68.000000 
	C72.882545,68.000000 37.409931,68.000000 1.468657,68.000000 
	C1.000000,67.555557 1.000000,67.111107 1.358892,66.173615 
	C3.801311,58.056805 5.822329,50.415283 7.981946,42.813129 
	C11.944845,28.863171 15.989454,14.936424 20.000000,1.000000 
	C118.020897,1.000000 216.041794,1.000000 314.531342,0.999998 
z"/>
    <path fill="#E84142" opacity="1.000000" stroke="none"
          d="
M2358.531250,1.000020 
	C2356.979492,9.021663 2355.130859,17.091515 2352.900391,25.054369 
	C2348.917236,39.271851 2344.703857,53.424847 2340.502441,67.895630 
	C2304.705322,67.895630 2268.755859,67.895630 2232.592529,67.895630 
	C2229.400146,78.945709 2226.167725,89.778358 2223.145996,100.669533 
	C2217.201660,122.096382 2211.417236,143.567459 2205.489258,164.998917 
	C2196.359863,198.004791 2187.192871,231.000534 2177.890869,263.958008 
	C2177.540771,265.198608 2175.620117,266.861420 2174.421143,266.869568 
	C2149.457520,267.039032 2124.492432,266.997375 2098.345459,266.997375 
	C2116.865967,200.363373 2135.220947,134.326340 2153.684326,67.898087 
	C2117.721680,67.898087 2081.972656,67.898087 2045.623901,67.898087 
	C2048.818848,56.664577 2051.925537,45.932964 2054.917480,35.169559 
	C2058.002930,24.070021 2060.977051,12.939575 2064.000000,1.411325 
	C2162.020752,1.000000 2260.041748,1.000000 2358.531250,1.000020 
z"/>
    <path fill="#E84142" opacity="1.000000" stroke="none"
          d="
M672.531372,1.000000 
	C669.701599,13.211476 666.456543,25.437656 663.093872,37.631424 
	C655.757080,64.236946 648.385193,90.832878 640.980225,117.419510 
	C635.317200,137.752045 629.592407,158.067444 623.871521,178.383804 
	C621.898865,185.389206 619.855042,192.374588 617.696838,199.880035 
	C683.619385,199.880035 749.021484,199.880035 815.371460,199.880035 
	C814.147034,204.593353 813.130127,208.733170 811.994324,212.840103 
	C807.364868,229.579666 802.592346,246.280869 798.138428,263.066742 
	C797.272949,266.328400 795.784607,267.059662 792.689453,267.057190 
	C703.556702,266.986328 614.423950,267.000763 525.291138,266.992126 
	C523.982666,266.991974 522.674194,266.874176 520.502930,266.769836 
	C521.690613,262.724396 522.810791,259.072113 523.835266,255.393234 
	C531.151306,229.120773 538.420532,202.835281 545.757446,176.568680 
	C555.714417,140.922104 565.754944,105.298874 575.688965,69.645920 
	C581.874329,47.446495 587.926941,25.210083 594.056763,2.995139 
	C594.181946,2.541327 594.523010,2.147058 594.881714,1.362503 
	C620.687561,1.000000 646.375122,1.000000 672.531372,1.000000 
z"/>
    <path fill="#E84142" opacity="1.000000" stroke="none"
          d="
M2111.468750,483.000000 
	C2109.325928,482.313721 2107.699463,481.462433 2105.970947,480.966003 
	C2083.475342,474.505005 2065.833984,461.766876 2053.752197,441.446625 
	C2045.675659,427.863068 2041.798218,413.056366 2042.170044,397.574188 
	C2042.976440,363.997742 2062.148193,333.724426 2095.305176,320.945251 
	C2125.998779,309.115448 2154.636963,313.665222 2180.106689,333.947113 
	C2195.770020,346.420044 2205.367188,363.276276 2209.065430,383.317352 
	C2213.874268,409.379028 2207.688232,432.806946 2191.191895,452.982025 
	C2177.467529,469.766968 2159.278076,479.817261 2137.176270,482.630249 
	C2128.645752,483.000000 2120.291748,483.000000 2111.468750,483.000000 
M2103.065918,384.666626 
	C2095.606201,398.021576 2088.088867,411.344849 2080.717773,424.748474 
	C2078.113037,429.485229 2079.674561,431.899658 2085.224854,431.978180 
	C2091.717041,432.070038 2098.211914,432.031158 2104.705078,431.989410 
	C2109.696289,431.957336 2113.999512,430.285858 2116.574219,425.808502 
	C2125.094727,410.991791 2133.662598,396.195709 2141.753174,381.144867 
	C2143.098633,378.641632 2143.251465,374.387726 2142.054199,371.834412 
	C2138.401855,364.045929 2133.926514,356.630829 2129.551514,349.199921 
	C2127.711914,346.075378 2125.249512,346.320801 2123.363037,349.296448 
	C2121.713379,351.898773 2120.436035,354.733673 2118.896484,357.409698 
	C2113.781250,366.300507 2108.622070,375.165985 2103.065918,384.666626 
M2160.457031,432.000000 
	C2163.119141,431.999207 2165.787354,432.116028 2168.441895,431.972870 
	C2173.750244,431.686554 2175.342529,429.175018 2172.801514,424.601257 
	C2168.616455,417.067657 2164.275391,409.611267 2159.726807,402.292023 
	C2156.080078,396.423981 2154.163818,396.657257 2150.685791,402.712402 
	C2146.473633,410.046021 2142.096680,417.285461 2137.941650,424.650696 
	C2137.173340,426.012207 2136.297363,428.437469 2136.918213,429.211792 
	C2138.034424,430.604401 2140.209473,431.777435 2142.007568,431.878265 
	C2147.812256,432.203857 2153.646973,431.999878 2160.457031,432.000000 
z"/>
    <path fill="#E84142" opacity="1.000000" stroke="none"
          d="
M2649.000000,424.834839 
	C2649.380615,427.979919 2648.487305,428.899323 2645.555420,429.116821 
	C2638.479736,429.641724 2633.599121,428.351379 2629.704834,421.062744 
	C2623.305908,409.085938 2615.125732,398.060944 2607.180664,385.841400 
	C2607.180664,400.564392 2607.180664,414.415955 2607.180664,428.631958 
	C2603.087891,428.631958 2599.365967,428.631958 2595.318115,428.631958 
	C2595.318115,408.999542 2595.318115,389.283661 2595.318115,369.011047 
	C2599.620850,369.011047 2603.921143,368.748535 2608.155762,369.160706 
	C2609.543701,369.295776 2611.104004,370.954254 2612.003174,372.304077 
	C2620.461426,385.002289 2628.793701,397.784454 2637.880127,411.636749 
	C2637.880127,396.793518 2637.880127,383.145233 2637.880127,369.253876 
	C2641.683105,369.253876 2644.959473,369.253876 2649.000000,369.253876 
	C2649.000000,387.545410 2649.000000,405.949524 2649.000000,424.834839 
z"/>
    <path fill="#E84142" opacity="1.000000" stroke="none"
          d="
M2762.473633,392.538574 
	C2770.964844,392.871490 2779.114502,392.871490 2787.777344,392.871490 
	C2787.777344,385.097229 2787.777344,377.365692 2787.777344,369.321960 
	C2791.669922,369.321960 2795.057861,369.321960 2798.726807,369.321960 
	C2798.726807,389.095276 2798.726807,408.813660 2798.726807,428.766357 
	C2795.274902,428.766357 2792.000244,428.766357 2788.214355,428.766357 
	C2788.214355,420.430878 2788.214355,412.029694 2788.214355,403.319092 
	C2779.323975,403.319092 2770.936279,403.319092 2762.033691,403.319092 
	C2762.033691,411.769073 2762.033691,420.166107 2762.033691,428.774780 
	C2757.922607,428.774780 2754.315430,428.774780 2750.353027,428.774780 
	C2750.353027,409.070343 2750.353027,389.351593 2750.353027,369.315369 
	C2754.016846,369.315369 2757.738525,369.315369 2762.132324,369.315369 
	C2762.132324,376.991516 2762.132324,384.598602 2762.473633,392.538574 
z"/>
    <path fill="#E84142" opacity="1.000000" stroke="none"
          d="
M2843.164795,392.999878 
	C2850.936035,393.000000 2858.225342,393.000000 2865.753662,393.000000 
	C2865.753662,396.364471 2865.753662,399.308624 2865.753662,402.760986 
	C2857.129395,402.760986 2848.393555,402.760986 2839.333008,402.760986 
	C2839.333008,407.981750 2839.333008,412.703156 2839.333008,417.940308 
	C2849.074707,417.940308 2858.804932,417.940308 2868.761230,417.940308 
	C2868.761230,421.714172 2868.761230,424.988007 2868.761230,428.633606 
	C2855.436279,428.633606 2842.047119,428.633606 2828.327393,428.633606 
	C2828.327393,409.009125 2828.327393,389.293304 2828.327393,369.287842 
	C2841.074219,369.287842 2853.793213,369.287842 2866.756836,369.287842 
	C2866.756836,372.705292 2866.756836,375.979523 2866.756836,379.767395 
	C2857.783691,379.767395 2848.717041,379.767395 2839.000488,379.767395 
	C2839.000488,383.344696 2839.191162,386.459747 2838.946045,389.540131 
	C2838.707275,392.541229 2840.015137,393.383209 2843.164795,392.999878 
z"/>
    <path fill="#E84142" opacity="1.000000" stroke="none"
          d="
M2531.000000,415.569885 
	C2528.944336,420.196808 2527.190674,424.516998 2525.428711,428.858093 
	C2521.345703,428.858093 2517.371094,428.858093 2512.700439,428.858093 
	C2515.574707,421.962830 2518.245117,415.404999 2521.033691,408.897736 
	C2526.348145,396.495087 2531.663574,384.091461 2537.184326,371.780548 
	C2537.744629,370.531342 2539.726562,369.131500 2541.020264,369.158478 
	C2543.985352,369.220337 2547.644531,367.352203 2549.511963,371.916534 
	C2552.958496,380.341248 2556.836182,388.588501 2560.453857,396.944519 
	C2564.457764,406.192444 2568.387451,415.472626 2572.306396,424.756958 
	C2572.849854,426.044891 2573.145020,427.437653 2573.569092,428.827393 
	C2572.947754,428.903931 2572.618408,428.974243 2572.288330,428.980865 
	C2561.070557,429.205841 2561.181396,429.158142 2556.727295,418.613770 
	C2556.070068,417.057983 2553.828857,415.232635 2552.251709,415.166168 
	C2545.281982,414.872345 2538.287598,415.175903 2531.000000,415.569885 
M2547.072266,395.259247 
	C2545.943848,391.937073 2544.815430,388.614868 2543.230225,383.947723 
	C2540.268066,391.600586 2537.736084,398.141754 2535.188477,404.723328 
	C2540.633545,404.723328 2545.680176,404.723328 2551.135254,404.723328 
	C2549.804688,401.552734 2548.629639,398.752808 2547.072266,395.259247 
z"/>
    <path fill="#E84142" opacity="1.000000" stroke="none"
          d="
M2243.690186,419.729248 
	C2250.401367,404.349396 2256.898193,389.292542 2263.348633,374.215912 
	C2265.340332,369.560883 2270.179443,367.298309 2274.816406,369.096405 
	C2275.444824,369.340118 2276.019043,370.121246 2276.306641,370.787994 
	C2284.582275,389.974396 2292.818115,409.178131 2301.325439,428.996765 
	C2297.265625,428.996765 2293.802002,429.225067 2290.397949,428.874481 
	C2289.186035,428.749664 2287.642578,427.452637 2287.073486,426.288422 
	C2285.311768,422.683472 2283.945801,418.885162 2282.360107,415.000336 
	C2275.339600,415.000336 2268.355469,414.838562 2261.390625,415.129639 
	C2259.903320,415.191833 2257.843750,416.571686 2257.159912,417.911957 
	C2255.398193,421.364929 2254.259033,425.135590 2252.861084,428.805786 
	C2248.547363,428.805786 2244.442139,428.805786 2239.970947,428.805786 
	C2241.209961,425.693085 2242.333984,422.868866 2243.690186,419.729248 
M2266.001953,395.464661 
	C2264.808350,398.559540 2263.614746,401.654449 2262.473877,404.612610 
	C2267.798096,404.612610 2272.805420,404.612610 2278.098389,404.612610 
	C2275.467773,397.601166 2273.002930,391.031189 2270.410156,384.119934 
	C2268.889404,387.827454 2267.484863,391.252106 2266.001953,395.464661 
z"/>
    <path fill="#E84142" opacity="1.000000" stroke="none"
          d="
M2422.706055,421.311646 
	C2421.583984,415.253326 2417.833740,414.329681 2412.832031,414.934784 
	C2409.880859,415.291779 2406.851318,415.000000 2403.856934,415.000000 
	C2395.702148,415.000000 2395.726807,415.008911 2392.968506,422.651550 
	C2392.210938,424.751038 2391.259033,426.780457 2390.395508,428.844513 
	C2386.332031,428.844513 2382.365234,428.844513 2377.563232,428.844513 
	C2379.418213,424.492615 2381.088867,420.547150 2382.780029,416.610596 
	C2389.251465,401.546417 2395.670166,386.458618 2402.318115,371.472626 
	C2402.845215,370.284180 2404.955566,369.178436 2406.367432,369.130066 
	C2409.402344,369.026062 2412.886963,367.730042 2414.711182,372.178558 
	C2419.269043,383.293579 2424.209961,394.251099 2428.975342,405.281128 
	C2431.549805,411.239960 2434.106689,417.206848 2436.612549,423.194672 
	C2437.284424,424.800079 2437.739990,426.495850 2438.311035,428.198090 
	C2428.018311,430.588409 2426.158447,429.756317 2422.706055,421.311646 
M2407.548584,405.000000 
	C2410.182373,405.000000 2412.816406,405.000000 2415.937988,405.000000 
	C2413.351562,398.079010 2410.899658,391.517914 2408.042236,383.871307 
	C2405.128906,391.585846 2402.659668,398.124756 2400.063477,405.000000 
	C2402.656738,405.000000 2404.643799,405.000000 2407.548584,405.000000 
z"/>
    <path fill="#E84142" opacity="1.000000" stroke="none"
          d="
M2708.178711,419.368927 
	C2711.087646,417.813232 2714.081543,416.963898 2716.169678,415.099854 
	C2718.697021,412.843689 2720.307617,412.422150 2722.716797,415.076080 
	C2724.088135,416.586639 2726.161133,417.460297 2727.912354,418.616882 
	C2721.786621,429.672119 2709.063477,431.678101 2698.776855,429.643097 
	C2684.484863,426.815765 2676.683838,418.057159 2675.143555,406.637848 
	C2672.770020,389.043976 2678.274902,376.215393 2689.686768,371.191223 
	C2702.283203,365.645721 2718.143311,366.168152 2726.952393,377.717407 
	C2724.013428,379.831024 2721.077393,381.942505 2718.177734,384.027832 
	C2709.647461,377.335571 2703.951416,375.095306 2693.516602,382.872650 
	C2686.257812,388.282990 2684.252930,398.555756 2688.217529,408.516388 
	C2690.929688,415.330505 2700.034180,420.479218 2708.178711,419.368927 
z"/>
    <path fill="#E84142" opacity="1.000000" stroke="none"
          d="
M1698.033325,419.132812 
	C1694.971313,426.585968 1694.971313,426.585968 1685.313721,425.645874 
	C1683.667847,411.956543 1682.014893,398.207947 1680.335327,384.238770 
	C1683.638672,384.238770 1687.061401,384.238770 1690.821289,384.238770 
	C1691.542480,392.656677 1692.252686,400.946899 1693.096924,410.801025 
	C1697.315552,401.046051 1700.959839,392.619354 1704.601929,384.197479 
	C1707.609619,384.197479 1710.561523,384.197479 1713.973755,384.197479 
	C1714.804810,392.640686 1715.621338,400.934906 1716.437866,409.229156 
	C1716.672363,409.389069 1716.906860,409.549011 1717.141357,409.708923 
	C1720.613037,401.249420 1724.084839,392.789917 1727.590454,384.247681 
	C1730.909790,384.247681 1734.337646,384.247681 1738.447876,384.247681 
	C1736.343384,389.126862 1734.483032,393.576904 1732.512207,397.977448 
	C1729.389038,404.951599 1726.206177,411.899139 1723.022217,418.845886 
	C1719.500000,426.531067 1719.487183,426.525208 1710.086304,425.629303 
	C1709.013672,417.699463 1707.925781,409.656860 1706.753784,400.993073 
	C1703.709106,407.215942 1700.888672,412.980438 1698.033325,419.132812 
z"/>
    <path fill="#E84142" opacity="1.000000" stroke="none"
          d="
M2362.697754,381.708771 
	C2356.515381,396.961334 2350.624268,411.916931 2344.480225,426.767853 
	C2344.015137,427.892609 2341.731445,428.903717 2340.327637,428.859863 
	C2337.902832,428.784210 2333.883789,428.497101 2333.340332,427.158752 
	C2325.650146,408.226227 2318.432861,389.101593 2311.113037,370.018799 
	C2311.064697,369.892609 2311.186768,369.701080 2311.369629,369.007965 
	C2314.821045,369.007965 2318.466309,368.705292 2322.006592,369.181732 
	C2323.155029,369.336273 2324.432373,371.380737 2324.965088,372.815399 
	C2329.539795,385.138245 2333.953857,397.520599 2338.441895,409.875793 
	C2338.538574,410.142426 2338.940430,410.298096 2339.481934,410.731079 
	C2344.223877,398.353271 2349.263916,386.192108 2353.445801,373.742584 
	C2354.913818,369.372833 2357.075439,368.606873 2360.875000,368.967560 
	C2362.823730,369.152557 2364.804199,369.000000 2367.533936,369.000000 
	C2365.839844,373.554047 2364.383057,377.469879 2362.697754,381.708771 
z"/>
    <path fill="#E84142" opacity="1.000000" stroke="none"
          d="
M1932.360352,384.006073 
	C1937.978394,384.000885 1943.144775,384.226868 1948.282104,383.936401 
	C1953.436768,383.645020 1957.381836,385.168549 1959.498047,390.046387 
	C1961.340820,394.294342 1959.745483,398.435547 1954.950195,402.494781 
	C1954.465698,402.904938 1953.844604,403.153625 1952.990234,403.649414 
	C1959.018799,406.273407 1958.564453,411.442688 1957.751343,416.263916 
	C1956.919434,421.197906 1951.423218,425.692810 1946.098145,425.911591 
	C1938.492065,426.224091 1930.863647,425.991119 1923.218262,425.991119 
	C1925.192017,413.865173 1927.004761,402.141907 1929.084106,390.466187 
	C1929.484375,388.218781 1930.931641,386.157806 1932.360352,384.006073 
M1939.571289,408.000183 
	C1932.494263,408.546692 1936.381592,414.539581 1934.118530,417.992859 
	C1937.174805,417.992859 1939.635376,418.004059 1942.095581,417.983398 
	C1942.582275,417.979309 1943.281494,418.034149 1943.519287,417.753693 
	C1945.066772,415.928589 1947.281494,414.160431 1947.667480,412.075439 
	C1947.857910,411.046967 1944.678711,409.280914 1942.878296,408.064575 
	C1942.312012,407.682007 1941.271118,408.001740 1939.571289,408.000183 
M1948.263184,398.932617 
	C1950.664795,396.491699 1950.006714,393.966492 1947.642700,392.349823 
	C1943.968018,389.836700 1938.580566,392.813507 1937.964966,397.321686 
	C1937.816772,398.406250 1937.391113,399.452881 1936.706909,401.895996 
	C1940.845459,400.826752 1944.162109,399.969910 1948.263184,398.932617 
z"/>
    <path fill="#E84142" opacity="1.000000" stroke="none"
          d="
M1810.397217,385.150513 
	C1818.231201,392.634674 1817.703369,401.973328 1809.352905,408.216675 
	C1807.286865,409.761292 1806.928467,411.223114 1807.944092,413.597351 
	C1809.586182,417.436401 1810.846313,421.438812 1812.411011,425.768707 
	C1808.483276,425.768707 1805.194580,425.768707 1801.532227,425.768707 
	C1799.940063,421.488770 1798.264282,416.983826 1796.521973,412.300110 
	C1792.222534,411.121063 1789.867798,412.381775 1789.916260,417.477142 
	C1789.940796,420.050446 1789.106201,422.631927 1788.588379,425.623657 
	C1785.807617,425.623657 1782.750488,425.623657 1778.674316,425.623657 
	C1780.906128,411.886902 1783.134644,398.169495 1785.505737,383.575500 
	C1793.641602,384.048340 1801.831665,384.524353 1810.397217,385.150513 
M1794.021362,402.993530 
	C1795.513184,402.995636 1797.005615,403.023224 1798.496826,402.994812 
	C1802.214478,402.924042 1806.330078,399.540710 1805.671021,396.571289 
	C1804.917358,393.175354 1802.482422,391.356537 1798.688599,391.973297 
	C1797.259521,392.205627 1795.781250,392.135315 1793.849121,392.225098 
	C1793.613770,395.943176 1793.392212,399.445679 1794.021362,402.993530 
z"/>
    <path fill="#E84142" opacity="1.000000" stroke="none"
          d="
M1636.302002,422.793823 
	C1627.896729,416.407379 1630.784424,398.708466 1636.556885,391.907898 
	C1641.118286,386.534241 1646.602295,383.091217 1653.853394,382.998688 
	C1664.146484,382.867279 1671.390991,388.684784 1671.820435,398.903625 
	C1672.199951,407.934540 1669.729004,416.665253 1661.967285,422.349976 
	C1654.759888,427.628876 1646.116455,429.565216 1636.302002,422.793823 
M1645.482422,396.013489 
	C1643.988403,400.706635 1641.653320,405.322021 1641.210449,410.112335 
	C1640.638428,416.297516 1646.548462,419.645081 1652.353149,417.189667 
	C1658.054443,414.777985 1663.281616,404.900848 1661.954590,399.046906 
	C1660.531006,392.767151 1655.474731,390.291870 1649.709717,393.123230 
	C1648.409424,393.761749 1647.247437,394.681305 1645.482422,396.013489 
z"/>
    <path fill="#E84142" opacity="1.000000" stroke="none"
          d="
M1869.417480,384.004639 
	C1874.205566,384.000641 1878.544556,384.197906 1882.859741,383.961914 
	C1894.517822,383.324371 1900.515869,391.756683 1899.886230,401.834839 
	C1899.342529,410.540283 1896.542847,418.578125 1888.220825,423.127350 
	C1885.592285,424.564301 1882.493042,425.676636 1879.539062,425.870850 
	C1873.258179,426.283722 1866.931396,425.996887 1859.979004,425.996887 
	C1860.768066,420.590851 1861.443604,415.523560 1862.259399,410.478912 
	C1863.454956,403.085968 1864.628784,395.684692 1866.102051,388.345245 
	C1866.417847,386.771942 1867.973267,385.447418 1869.417480,384.004639 
M1887.308594,394.068726 
	C1883.444946,393.170959 1879.581299,392.273193 1875.467163,391.317230 
	C1873.961060,400.773346 1872.620850,409.187927 1871.228760,417.928284 
	C1877.256226,418.075165 1883.378418,418.062164 1886.650269,412.415405 
	C1889.807739,406.966339 1892.292114,400.831940 1887.308594,394.068726 
z"/>
    <path fill="#E84142" opacity="1.000000" stroke="none"
          d="
M2472.000000,387.000977 
	C2472.000000,397.457550 2472.000000,407.414459 2472.000000,417.869873 
	C2480.338135,417.869873 2488.393799,417.869873 2496.719727,417.869873 
	C2496.719727,421.750824 2496.719727,425.135284 2496.719727,428.761780 
	C2484.628906,428.761780 2472.704102,428.761780 2460.389160,428.761780 
	C2460.389160,409.154755 2460.389160,389.456512 2460.389160,369.378204 
	C2463.886719,369.378204 2467.604004,369.378204 2472.000000,369.378204 
	C2472.000000,374.990479 2472.000000,380.745880 2472.000000,387.000977 
z"/>
    <path fill="#E84142" opacity="1.000000" stroke="none"
          d="
M1821.953125,419.770020 
	C1823.438477,409.650757 1824.882202,399.975403 1826.345581,390.303040 
	C1826.637085,388.377258 1827.003052,386.462799 1827.381958,384.269287 
	C1837.060059,384.269287 1846.815552,384.269287 1856.580200,384.269287 
	C1855.071899,392.000000 1855.071899,392.000000 1846.705811,392.000000 
	C1843.388916,392.000000 1840.072021,392.000000 1836.360962,392.000000 
	C1835.816772,394.896545 1835.297729,397.659393 1834.671387,400.992676 
	C1840.763550,400.992676 1846.187866,400.992676 1851.540527,400.992676 
	C1852.468018,408.733337 1852.253174,408.996002 1845.406128,408.999573 
	C1841.437622,409.001648 1837.469116,409.000000 1833.412720,409.000000 
	C1832.860474,412.024780 1832.371582,414.702332 1831.791870,417.877106 
	C1838.261841,417.877106 1844.359009,417.877106 1851.125488,417.877106 
	C1850.603149,420.838074 1850.175293,423.262634 1849.722534,425.829224 
	C1840.208618,425.829224 1830.933350,425.829224 1820.830933,425.829224 
	C1821.221924,423.810760 1821.570312,422.012878 1821.953125,419.770020 
z"/>
    <path fill="#E84142" opacity="1.000000" stroke="none"
          d="
M1769.004639,422.244812 
	C1769.202393,424.756378 1768.930664,426.103088 1766.200317,426.055634 
	C1757.379150,425.902313 1748.553467,425.998444 1739.375977,425.998444 
	C1741.695190,411.986816 1743.971191,398.237000 1746.286377,384.249756 
	C1755.744751,384.249756 1765.167725,384.249756 1775.296631,384.249756 
	C1774.733276,386.984161 1774.234131,389.406921 1773.699829,392.000000 
	C1769.011475,392.000000 1764.662964,392.311096 1760.379517,391.916626 
	C1755.648682,391.480988 1753.567505,393.147888 1753.962769,397.917633 
	C1754.039062,398.838440 1753.698608,399.793762 1753.504028,401.026459 
	C1759.180786,401.026459 1764.817017,401.026459 1771.100586,401.026459 
	C1770.603760,403.841675 1770.176147,406.265167 1769.698120,408.973999 
	C1763.849121,408.973999 1758.217407,408.973999 1752.261108,408.973999 
	C1751.707397,411.873718 1751.198853,414.536682 1750.580688,417.773163 
	C1757.214966,417.773163 1763.298462,417.773163 1769.900879,417.773163 
	C1769.520630,419.488129 1769.264771,420.642151 1769.004639,422.244812 
z"/>
    <path fill="#E84142" opacity="1.000000" stroke="none"
          d="
M1616.165527,410.365906 
	C1610.505615,411.744812 1605.137329,412.870819 1599.241333,414.107513 
	C1599.086670,415.166840 1598.958008,417.100769 1598.506470,418.956024 
	C1596.703979,426.358978 1596.666748,426.349915 1587.545410,425.666260 
	C1589.768677,411.891815 1591.979614,398.193542 1594.269165,384.009003 
	C1601.230591,384.009003 1608.244873,383.355682 1615.082397,384.175354 
	C1623.514160,385.186157 1626.837891,392.595062 1623.167480,402.112457 
	C1621.982544,405.184967 1618.751831,407.468536 1616.165527,410.365906 
M1613.998535,396.545746 
	C1612.605225,389.821228 1607.395386,392.706940 1603.111572,391.951599 
	C1602.349731,396.431488 1601.647217,400.562317 1600.932373,404.765625 
	C1610.316406,405.301971 1612.627686,403.902405 1613.998535,396.545746 
z"/>
    <path fill="#E84142" opacity="1.000000" stroke="none"
          d="
M1991.622803,409.813904 
	C1989.985596,415.214905 1988.613037,420.330261 1987.154053,425.767517 
	C1984.516357,425.767517 1981.428101,425.767517 1977.255615,425.767517 
	C1984.696899,410.111176 1973.475342,398.200165 1969.777588,384.005890 
	C1973.052734,384.005890 1976.002197,383.710754 1978.838745,384.148376 
	C1980.004517,384.328186 1981.372437,385.906708 1981.878418,387.159943 
	C1983.566528,391.339417 1984.906128,395.659729 1986.785889,401.103943 
	C1989.317749,397.295837 1991.528320,394.394562 1993.284668,391.240326 
	C1996.912720,384.724182 2002.085693,382.216095 2009.598999,384.549805 
	C2003.699097,392.870422 1997.793213,401.199310 1991.622803,409.813904 
z"/>

</svg>